<?xml version="1.0" encoding="utf-8"?>
<!-- Generator: Adobe Illustrator 24.0.1, SVG Export Plug-In . SVG Version: 6.00 Build 0)  -->
<svg version="1.0" id="Capa_1" xmlns="http://www.w3.org/2000/svg" xmlns:xlink="http://www.w3.org/1999/xlink" x="0px" y="0px"
	 viewBox="0 0 464.04 116.86" style="enable-background:new 0 0 464.04 116.86;" xml:space="preserve">
<style type="text/css">
	.st0{fill:#316485;}
	.st1{fill:#77BCF0;}
	.st2{fill:#4AE7FD;}
	.st3{fill:#E81A68;}
	.st4{fill:none;stroke:#021733;stroke-width:7.0338;stroke-miterlimit:10;}
	.st5{fill:#021733;}
</style>
<g>
	<g>
		<polygon class="st0" points="62.11,75.4 62.11,91.56 73.59,103.04 89.75,103.04 		"/>
	</g>
	<g>
		<polygon class="st1" points="51.91,81.78 51.91,65.2 61.92,75.21 61.92,91.49 		"/>
	</g>
	<g>
		<polygon class="st1" points="51.91,81.78 42.56,91.08 42.56,74.81 51.91,65.2 		"/>
	</g>
	<g>
		<polygon class="st2" points="39.85,77.52 39.85,93.79 30.65,103.04 24.85,103.08 24.85,92.52 		"/>
	</g>
	<g>
		<g>
			<g>
				<polygon class="st2" points="24.85,103.08 2.52,103.08 2.52,39.4 24.85,57.81 				"/>
			</g>
		</g>
		<g>
			<g>
				<polygon class="st3" points="25.51,103.13 2.4,103.13 2.4,100.14 22.52,100.14 22.52,54.38 36.02,47.23 37.42,49.87 
					25.51,56.18 				"/>
			</g>
			<g>
				<polygon class="st3" points="53.17,102.39 39.71,102.39 39.71,0.85 71.12,22.34 71.12,54.53 68.13,54.53 68.13,23.92 42.7,6.52 
					42.7,99.4 50.18,99.4 50.18,42 46.36,43.91 45.03,41.23 53.17,37.16 				"/>
			</g>
			<g>
				<polygon class="st3" points="109.1,103.13 86.09,103.13 86.07,63.5 62.14,63.5 62.14,99.4 68.13,99.4 68.13,66.5 71.12,66.5 
					71.12,102.39 59.15,102.39 59.15,60.51 89.06,60.51 89.08,100.14 109.1,100.14 				"/>
			</g>
			<g>
				<path class="st4" d="M1.58,67.24"/>
			</g>
		</g>
	</g>
	<g>
		<g>
			<path class="st5" d="M137.4,97.11c-1.54,1.4-3.41,2.49-5.6,3.29c-2.19,0.8-4.43,1.2-6.73,1.2c-2.34,0-4.55-0.44-6.61-1.31
				c-2.07-0.87-3.86-2.07-5.38-3.59c-1.52-1.52-2.73-3.29-3.62-5.31c-0.9-2.02-1.35-4.17-1.35-6.46c0-2.29,0.45-4.45,1.35-6.46
				c0.9-2.02,2.1-3.79,3.62-5.31c1.52-1.52,3.29-2.71,5.31-3.59c2.02-0.87,4.15-1.31,6.39-1.31c3.59,0,6.74,1.08,9.45,3.25
				c2.71,2.17,4.64,5.02,5.79,8.56c-1.49,0.55-3.23,1.21-5.19,1.98c-1.97,0.77-4.02,1.58-6.17,2.43c-2.14,0.85-4.28,1.71-6.43,2.58
				c-2.14,0.87-4.11,1.66-5.9,2.35c0.85,1.55,2.02,2.79,3.51,3.74c1.49,0.95,3.19,1.42,5.08,1.42c1.3,0,2.6-0.24,3.92-0.71
				c1.32-0.47,2.4-1.11,3.25-1.91L137.4,97.11z M131.12,78.42c-0.6-1.1-1.5-1.91-2.69-2.43c-1.2-0.52-2.37-0.79-3.51-0.79
				c-1.34,0-2.62,0.26-3.81,0.79c-1.2,0.52-2.22,1.22-3.06,2.09c-0.85,0.87-1.52,1.87-2.02,2.99c-0.5,1.12-0.75,2.28-0.75,3.47v0.3
				c1.24-0.5,2.58-1.03,4-1.61c1.42-0.57,2.84-1.16,4.26-1.76c1.42-0.6,2.78-1.16,4.07-1.68C128.91,79.28,130.08,78.82,131.12,78.42
				z"/>
		</g>
		<g>
			<path class="st5" d="M145.55,69.01h6.28c0.1,1.79,0.21,3.25,0.34,4.37c0.12,1.12,0.24,2.38,0.34,3.77
				c1.15-2.69,2.76-4.86,4.86-6.5c2.09-1.64,4.71-2.47,7.85-2.47c3.24,0,5.82,0.88,7.73,2.65c1.92,1.77,2.93,4.07,3.03,6.91v23.02
				h-7.1V81.11c-0.1-1.54-0.65-2.88-1.64-4c-1-1.12-2.54-1.73-4.63-1.83c-1.45,0-2.78,0.26-4,0.78c-1.22,0.52-2.27,1.23-3.14,2.13
				c-0.87,0.9-1.55,1.97-2.02,3.21c-0.47,1.25-0.71,2.59-0.71,4.03v15.32h-7.17V69.01z"/>
		</g>
		<g>
			<path class="st5" d="M211.83,97.11c-1.54,1.4-3.41,2.49-5.6,3.29c-2.19,0.8-4.43,1.2-6.73,1.2c-2.34,0-4.55-0.44-6.61-1.31
				c-2.07-0.87-3.86-2.07-5.38-3.59c-1.52-1.52-2.73-3.29-3.62-5.31c-0.9-2.02-1.35-4.17-1.35-6.46c0-2.29,0.45-4.45,1.35-6.46
				c0.9-2.02,2.1-3.79,3.62-5.31c1.52-1.52,3.29-2.71,5.31-3.59c2.02-0.87,4.15-1.31,6.39-1.31c3.59,0,6.74,1.08,9.45,3.25
				c2.71,2.17,4.64,5.02,5.79,8.56c-1.49,0.55-3.23,1.21-5.19,1.98c-1.97,0.77-4.02,1.58-6.17,2.43c-2.14,0.85-4.28,1.71-6.43,2.58
				c-2.14,0.87-4.11,1.66-5.9,2.35c0.85,1.55,2.02,2.79,3.51,3.74c1.49,0.95,3.19,1.42,5.08,1.42c1.3,0,2.6-0.24,3.92-0.71
				c1.32-0.47,2.4-1.11,3.25-1.91L211.83,97.11z M205.55,78.42c-0.6-1.1-1.5-1.91-2.69-2.43c-1.2-0.52-2.37-0.79-3.51-0.79
				c-1.34,0-2.62,0.26-3.81,0.79c-1.2,0.52-2.22,1.22-3.06,2.09c-0.85,0.87-1.52,1.87-2.02,2.99c-0.5,1.12-0.75,2.28-0.75,3.47v0.3
				c1.24-0.5,2.58-1.03,4-1.61c1.42-0.57,2.84-1.16,4.26-1.76c1.42-0.6,2.78-1.16,4.07-1.68C203.33,79.28,204.5,78.82,205.55,78.42z
				 M194.12,64.38c1.15-1.64,2.28-3.31,3.4-5.01c1.12-1.69,2.25-3.39,3.4-5.08h7.7c-1.5,1.69-3.01,3.39-4.56,5.08
				c-1.54,1.69-3.09,3.36-4.63,5.01H194.12z"/>
		</g>
		<g>
			<path class="st5" d="M237.68,77.45c-1.39,0-2.73,0.18-4,0.52c-1.27,0.35-2.39,0.89-3.36,1.61c-0.97,0.72-1.76,1.62-2.35,2.69
				c-0.6,1.07-0.9,2.33-0.9,3.77v14.72h-7.17V69.01h6.28c0.1,1.79,0.21,3.25,0.34,4.37c0.12,1.12,0.24,2.38,0.34,3.77
				c0.65-1.39,1.52-2.64,2.62-3.74c1.1-1.09,2.23-2.03,3.4-2.8c1.17-0.77,2.33-1.37,3.48-1.79c1.14-0.42,2.12-0.63,2.91-0.63
				L237.68,77.45z"/>
		</g>
		<g>
			<path class="st5" d="M241.57,85.07c0-2.39,0.42-4.62,1.27-6.69c0.85-2.07,2.01-3.86,3.47-5.38c1.47-1.52,3.19-2.7,5.16-3.55
				c1.97-0.85,4.07-1.27,6.31-1.27c1.69,0,3.19,0.22,4.48,0.67c1.3,0.45,2.38,0.95,3.25,1.5c0.87,0.55,1.54,1.07,2.02,1.57
				c0.47,0.5,0.76,0.8,0.86,0.9c0-0.55,0.05-1.15,0.15-1.79c0.1-0.65,0.15-1.32,0.15-2.02h6.88v30.12c0,2.69-0.42,5.09-1.27,7.21
				c-0.85,2.12-2.03,3.89-3.55,5.31c-1.52,1.42-3.34,2.5-5.45,3.25c-2.12,0.75-4.45,1.12-6.99,1.12c-1.94,0-3.65-0.2-5.12-0.6
				c-1.47-0.4-2.79-0.92-3.96-1.57c-1.17-0.65-2.24-1.37-3.21-2.17c-0.97-0.8-1.91-1.59-2.8-2.39l4.63-4.86
				c1.39,1.3,2.89,2.4,4.48,3.33c1.59,0.92,3.54,1.38,5.83,1.38c3.09,0,5.55-0.75,7.4-2.24c1.84-1.49,2.76-3.61,2.76-6.35
				c0-0.25,0-0.53,0-0.86c0-0.32,0.02-0.66,0.07-1.01c0-0.45,0.05-0.85,0.15-1.19c0.1-0.35,0.15-0.65,0.15-0.9
				c-0.45,0.5-0.98,1.05-1.61,1.64c-0.62,0.6-1.37,1.15-2.24,1.64c-0.87,0.5-1.88,0.91-3.03,1.23c-1.15,0.32-2.47,0.49-3.96,0.49
				c-2.39,0-4.58-0.42-6.58-1.27c-1.99-0.85-3.71-2.02-5.16-3.51c-1.44-1.49-2.57-3.24-3.36-5.23
				C241.97,89.58,241.57,87.42,241.57,85.07z M248.74,84.78c0,1.4,0.24,2.69,0.71,3.89c0.47,1.2,1.15,2.23,2.02,3.1
				c0.87,0.87,1.91,1.56,3.1,2.05c1.2,0.5,2.52,0.75,3.96,0.75c1.44,0,2.78-0.25,4-0.75c1.22-0.5,2.27-1.19,3.14-2.09
				c0.87-0.9,1.54-1.94,2.02-3.14c0.47-1.2,0.71-2.47,0.71-3.81c0-1.34-0.24-2.6-0.71-3.77c-0.47-1.17-1.15-2.18-2.02-3.03
				c-0.87-0.85-1.92-1.52-3.14-2.02c-1.22-0.5-2.55-0.75-4-0.75c-1.44,0-2.76,0.24-3.96,0.71c-1.19,0.47-2.23,1.15-3.1,2.02
				c-0.87,0.87-1.55,1.89-2.02,3.06C248.98,82.17,248.74,83.43,248.74,84.78z"/>
		</g>
		<g>
			<path class="st5" d="M283.56,56.68c0-1.29,0.47-2.37,1.42-3.21c0.95-0.85,1.97-1.27,3.06-1.27c1.1,0,2.1,0.42,3.03,1.27
				c0.92,0.85,1.38,1.92,1.38,3.21c0,1.35-0.46,2.43-1.38,3.25c-0.92,0.82-1.93,1.23-3.03,1.23c-1.1,0-2.12-0.41-3.06-1.23
				C284.04,59.11,283.56,58.02,283.56,56.68z M291.56,100.77h-7.17V69.01h7.17V100.77z"/>
		</g>
		<g>
			<path class="st5" d="M321.6,92.47c0.75,0.95,1.47,1.86,2.17,2.73c0.7,0.87,1.42,1.76,2.17,2.65c-1.45,1.15-3.06,2.06-4.86,2.73
				c-1.79,0.67-3.71,1.01-5.75,1.01c-2.34,0-4.55-0.44-6.61-1.31c-2.07-0.87-3.86-2.07-5.38-3.59c-1.52-1.52-2.73-3.3-3.62-5.34
				c-0.9-2.04-1.35-4.21-1.35-6.5c0-2.29,0.45-4.45,1.35-6.46c0.9-2.02,2.1-3.79,3.62-5.31c1.52-1.52,3.31-2.71,5.38-3.59
				c2.07-0.87,4.27-1.31,6.61-1.31c2.09,0,4.05,0.34,5.87,1.01c1.82,0.67,3.47,1.58,4.97,2.73l-4.56,5.31
				c-1.75-1.34-3.84-2.02-6.28-2.02c-1.44,0-2.76,0.25-3.96,0.75c-1.2,0.5-2.23,1.17-3.1,2.02c-0.87,0.85-1.55,1.86-2.02,3.03
				c-0.47,1.17-0.71,2.45-0.71,3.85c0,1.35,0.24,2.6,0.71,3.77c0.47,1.17,1.15,2.2,2.02,3.1c0.87,0.9,1.91,1.59,3.1,2.09
				c1.19,0.5,2.51,0.75,3.96,0.75C317.81,94.57,319.9,93.87,321.6,92.47z"/>
		</g>
		<g>
			<path class="st5" d="M329,85.22c0-2.29,0.45-4.47,1.35-6.54c0.9-2.07,2.1-3.87,3.62-5.42c1.52-1.54,3.29-2.78,5.31-3.7
				c2.02-0.92,4.15-1.38,6.39-1.38c1.49,0,2.84,0.19,4.03,0.56c1.2,0.37,2.23,0.81,3.1,1.31c0.87,0.5,1.56,1.01,2.06,1.53
				c0.5,0.52,0.82,0.93,0.97,1.23l0.3-3.81h6.95v31.76h-7.25v-2.09c0-0.25,0.01-0.49,0.04-0.71c0.02-0.22,0.04-0.38,0.04-0.49
				c-0.2,0.25-0.55,0.61-1.05,1.08c-0.5,0.47-1.17,0.93-2.02,1.38c-0.85,0.45-1.86,0.83-3.03,1.16c-1.17,0.32-2.53,0.49-4.07,0.49
				c-2.44,0-4.68-0.45-6.73-1.34c-2.04-0.9-3.81-2.09-5.31-3.59c-1.49-1.49-2.65-3.22-3.47-5.19C329.41,89.5,329,87.42,329,85.22z
				 M336.24,84.78c0,1.4,0.24,2.69,0.71,3.89c0.47,1.2,1.15,2.23,2.02,3.1c0.87,0.87,1.91,1.56,3.1,2.05
				c1.2,0.5,2.52,0.75,3.96,0.75s2.76-0.25,3.96-0.75c1.2-0.5,2.23-1.19,3.1-2.09c0.87-0.9,1.54-1.94,2.02-3.14
				c0.47-1.2,0.71-2.47,0.71-3.81c0-1.34-0.24-2.6-0.71-3.77c-0.47-1.17-1.15-2.18-2.02-3.03c-0.87-0.85-1.91-1.52-3.1-2.02
				c-1.2-0.5-2.52-0.75-3.96-0.75s-2.76,0.24-3.96,0.71c-1.19,0.47-2.23,1.15-3.1,2.02c-0.87,0.87-1.55,1.89-2.02,3.06
				C336.48,82.17,336.24,83.43,336.24,84.78z"/>
		</g>
		<g>
			<path class="st5" d="M386.98,101.36c-4.58,0-8.39-1.52-11.43-4.56c-3.04-3.04-4.56-6.85-4.56-11.43c0-4.58,1.52-8.39,4.56-11.43
				c3.04-3.04,6.85-4.56,11.43-4.56c3.94,0,7.07,0.9,9.42,2.69v3.66l-1.94-1.27l-2.09-1.12c-1.89-0.65-3.69-0.97-5.38-0.97
				c-3.84,0-6.95,1.2-9.34,3.59c-2.44,2.44-3.66,5.58-3.66,9.41c0,3.79,1.22,6.9,3.66,9.34c2.44,2.44,5.55,3.66,9.34,3.66
				c3.59,0,6.73-1.2,9.42-3.59v3.81C393.61,100.44,390.47,101.36,386.98,101.36z"/>
		</g>
		<g>
			<path class="st5" d="M405.44,64.38c-0.55,0-1.12-0.22-1.72-0.67c-0.45-0.45-0.7-1.05-0.75-1.79c0-1.35,0.82-2.17,2.47-2.47
				c1.25,0,2.07,0.82,2.47,2.47C407.91,63.55,407.09,64.38,405.44,64.38z M403.87,100.77V69.9h3.06v30.86H403.87z"/>
		</g>
		<g>
			<path class="st5" d="M421.73,72.97v27.8h-3.06v-27.8h-4.18V69.9h4.18V56.38h3.06V69.9h7.17v3.06H421.73z"/>
		</g>
		<g>
			<path class="st5" d="M441.38,115.26h-3.44l8-17.34l-13-28.02h3.29l11.51,24.36l11.36-24.36h3.36L441.38,115.26z"/>
		</g>
	</g>
</g>
</svg>
